<svg width="40" height="38" viewBox="0 0 40 38" fill="none" xmlns="http://www.w3.org/2000/svg">
<path d="M29.6381 0H9.89209C4.43683 0 0 4.45451 0 9.93151V28.0685C0 33.5455 4.43683 38 9.89209 38H29.6381C35.0934 38 39.5302 33.5455 39.5302 28.0685V9.93151C39.5302 4.45451 35.0934 0 29.6381 0ZM3.48919 9.93151C3.48919 6.38649 6.36115 3.50309 9.89209 3.50309H29.6381C33.1691 3.50309 36.041 6.38649 36.041 9.93151V28.0685C36.041 31.6135 33.1691 34.4969 29.6381 34.4969H9.89209C6.36115 34.4969 3.48919 31.6135 3.48919 28.0685V9.93151Z" fill="white"/>
<path d="M19.7642 28.2398C24.8383 28.2398 28.9665 24.0951 28.9665 19.0009C28.9665 13.9066 24.8383 9.76196 19.7642 9.76196C14.6902 9.76196 10.562 13.9066 10.562 19.0009C10.562 24.0951 14.6902 28.2398 19.7642 28.2398ZM19.7642 13.2669C22.9139 13.2669 25.4755 15.8386 25.4755 19.0009C25.4755 22.1631 22.9139 24.7349 19.7642 24.7349C16.6145 24.7349 14.053 22.1631 14.053 19.0009C14.053 15.8386 16.6145 13.2669 19.7642 13.2669Z" fill="white"/>
<path d="M29.8197 11.2529C31.1867 11.2529 32.2995 10.1356 32.2995 8.76315C32.2995 7.39071 31.1867 6.27344 29.8197 6.27344C28.4527 6.27344 27.3398 7.39071 27.3398 8.76315C27.3398 10.1356 28.4527 11.2529 29.8197 11.2529Z" fill="white"/>
</svg>
