<svg width="173" height="24" viewBox="0 0 173 24" fill="none" xmlns="http://www.w3.org/2000/svg">
<path d="M0.00800014 23V1.24H6.632C8.25333 1.24 9.53333 1.47467 10.472 1.944C11.432 2.41333 12.1147 3.07467 12.52 3.928C12.9467 4.78133 13.16 5.784 13.16 6.936V7.832C13.16 9.51733 12.4347 10.808 10.984 11.704C12.008 12.1093 12.7867 12.696 13.32 13.464C13.8533 14.232 14.12 15.1493 14.12 16.216V17.112C14.12 18.2853 13.9067 19.32 13.48 20.216C13.0533 21.0907 12.3493 21.7733 11.368 22.264C10.3867 22.7547 9.07467 23 7.432 23H0.00800014ZM6.632 4.76H3.848V10.2H6.632C7.48533 10.2 8.12533 10.008 8.552 9.624C9 9.21867 9.224 8.67467 9.224 7.992V6.936C9.224 6.25333 9 5.72 8.552 5.336C8.12533 4.952 7.48533 4.76 6.632 4.76ZM7.432 13.72H3.848V19.48H7.432C8.328 19.48 9.01067 19.2667 9.48 18.84C9.94933 18.4133 10.184 17.8373 10.184 17.112V16.056C10.184 15.3307 9.94933 14.7653 9.48 14.36C9.01067 13.9333 8.328 13.72 7.432 13.72ZM31.3348 19.32V23H18.7268V1.24H31.0148V4.92H22.5668V10.136H30.0548V13.816H22.5668V19.32H31.3348ZM47.467 23L46.123 18.744H38.667L37.323 23H33.515L40.779 1.24H44.171L51.467 23H47.467ZM40.747 12.088L39.755 15.224H45.003L44.011 12.088L42.411 6.584L40.747 12.088ZM55.1018 23V1.24H58.6218C60.3071 3.43733 61.9071 5.76267 63.4218 8.216C64.9364 10.648 66.3124 13.1547 67.5498 15.736L67.2618 9.24V1.24H70.9418V23H67.4218C66.0564 20.312 64.6378 17.6133 63.1658 14.904C61.7151 12.1733 60.1684 9.60267 58.5258 7.192L58.7818 14.68V23H55.1018ZM87.9278 19.928C88.7811 19.928 89.4851 19.7253 90.0398 19.32C90.5944 18.9147 90.9358 18.3707 91.0638 17.688C91.1918 16.984 91.0318 16.2053 90.5838 15.352L93.5278 13.56L98.3918 23H94.3918L92.9838 19.832C92.6851 20.856 92.0664 21.6987 91.1278 22.36C90.2104 23 89.0264 23.32 87.5758 23.32C85.6771 23.32 84.1838 22.7867 83.0958 21.72C82.0291 20.6533 81.4958 19.2773 81.4958 17.592C81.4958 16.3973 81.8051 15.2773 82.4238 14.232C83.0638 13.1867 84.1411 12.1733 85.6558 11.192C84.6104 10.3813 83.8531 9.57067 83.3838 8.76C82.9144 7.928 82.6798 7.04267 82.6798 6.104C82.6798 5.144 82.9038 4.26933 83.3518 3.48C83.7998 2.69067 84.4504 2.072 85.3038 1.624C86.1784 1.15466 87.2451 0.919998 88.5038 0.919998C90.3171 0.919998 91.7571 1.38933 92.8238 2.328C93.8904 3.26667 94.4238 4.568 94.4238 6.232C94.4238 7.23467 94.2211 8.09867 93.8158 8.824C93.4318 9.54933 92.8984 10.2107 92.2158 10.808C91.5331 11.384 90.7331 11.96 89.8158 12.536L87.5758 13.976C86.6158 14.5947 85.9864 15.192 85.6878 15.768C85.3891 16.344 85.2398 16.8987 85.2398 17.432C85.2398 18.2853 85.4851 18.9147 85.9758 19.32C86.4878 19.7253 87.1384 19.928 87.9278 19.928ZM86.2318 6.296C86.2318 6.76533 86.3598 7.288 86.6158 7.864C86.8931 8.44 87.3624 9.02667 88.0238 9.624C88.7704 9.13333 89.3358 8.728 89.7198 8.408C90.1038 8.06667 90.3704 7.74667 90.5198 7.448C90.6691 7.14933 90.7438 6.81867 90.7438 6.456C90.7438 5.688 90.5304 5.13333 90.1038 4.792C89.6771 4.42933 89.1544 4.248 88.5358 4.248C87.8958 4.248 87.3518 4.41867 86.9038 4.76C86.4558 5.10133 86.2318 5.61333 86.2318 6.296ZM120.24 19.32V23H107.696V1.24H111.536V19.32H120.24ZM136.522 19.32V23H123.914V1.24H136.202V4.92H127.754V10.136H135.242V13.816H127.754V19.32H136.522ZM152.655 23L151.311 18.744H143.855L142.511 23H138.703L145.967 1.24H149.359L156.655 23H152.655ZM145.935 12.088L144.943 15.224H150.191L149.199 12.088L147.599 6.584L145.935 12.088ZM171.425 14.648H164.129V23H160.289V1.24H172.385V4.92H164.129V10.968H171.425V14.648Z" fill="white"/>
</svg>
