<svg width="31" height="38" viewBox="0 0 31 38" fill="none" xmlns="http://www.w3.org/2000/svg">
<path d="M31 9.20596V15.7537C29.9205 15.6432 28.5232 15.3827 26.9717 14.7789C24.9483 13.9915 23.4414 12.914 22.4566 12.0792V25.3169L22.4325 25.2754C22.4492 25.5379 22.4566 25.8043 22.4566 26.0747C22.4566 32.6501 17.4212 38 11.2283 38C5.03535 38 0 32.6481 0 26.0747C0 19.5012 5.03535 14.1474 11.2283 14.1474C11.834 14.1474 12.4286 14.1987 13.0102 14.2974V20.7524C12.4509 20.5393 11.8526 20.4248 11.2283 20.4248C8.29626 20.4248 5.90864 22.9587 5.90864 26.0747C5.90864 29.1907 8.29626 31.7245 11.2283 31.7245C14.1603 31.7245 16.5479 29.1887 16.5479 26.0747C16.5479 25.9582 16.5461 25.8418 16.5387 25.7254V0H22.7019C22.7242 0.554528 22.7465 1.113 22.7669 1.66753C22.8078 2.75883 23.1738 3.80671 23.8111 4.66514C24.5599 5.67356 25.6636 6.84576 27.217 7.78116C28.67 8.65538 30.0338 9.03033 31 9.20794V9.20596Z" fill="white"/>
</svg>
